<svg width="12" height="12" viewBox="0 0 12 12" fill="none" xmlns="http://www.w3.org/2000/svg">
<g id="ArrowNarrowRight">
<path id="Vector" fill-rule="evenodd" clip-rule="evenodd" d="M8.78641 5.4498C8.93532 5.45144 9.07595 5.50933 9.17736 5.61074C9.27877 5.71215 9.33266 5.84878 9.32718 5.99058L9.20982 9.01559C9.2043 9.15739 9.13986 9.29273 9.03067 9.39185C8.92148 9.49097 8.77648 9.54576 8.62756 9.54416L5.45063 9.50961C5.30349 9.50557 5.16538 9.44664 5.06604 9.34552C4.96671 9.24439 4.91409 9.10915 4.91953 8.96894C4.92497 8.82872 4.98803 8.69474 5.09513 8.59586C5.20223 8.49698 5.34479 8.4411 5.49212 8.44027L7.31329 8.46007L2.88228 4.02906C2.78085 3.92763 2.72696 3.79097 2.73246 3.64914C2.73796 3.50732 2.80241 3.37194 2.91162 3.2728C3.02083 3.17366 3.16586 3.11888 3.31481 3.1205C3.46376 3.12212 3.60442 3.18001 3.70585 3.28144L8.13687 7.71245L8.20414 5.97836C8.20967 5.83657 8.27411 5.70123 8.3833 5.60211C8.49249 5.50299 8.63749 5.4482 8.78641 5.4498Z" fill="#F82E2E"/>
</g>
</svg>
