<svg width="24" height="22" viewBox="0 0 24 22" fill="none" xmlns="http://www.w3.org/2000/svg">
<g id="DotsVerticalOutline" opacity="0.6">
<path id="Vector" d="M5.21088 11.1819H5.22027H5.21088ZM11.7866 11.1819H11.796H11.7866ZM18.3624 11.1819H18.3718H18.3624ZM6.15027 11.1819C6.15027 11.4175 6.0513 11.6435 5.87513 11.8101C5.69896 11.9767 5.46002 12.0703 5.21088 12.0703C4.96174 12.0703 4.7228 11.9767 4.54663 11.8101C4.37046 11.6435 4.27148 11.4175 4.27148 11.1819C4.27148 10.9462 4.37046 10.7203 4.54663 10.5537C4.7228 10.387 4.96174 10.2934 5.21088 10.2934C5.46002 10.2934 5.69896 10.387 5.87513 10.5537C6.0513 10.7203 6.15027 10.9462 6.15027 11.1819ZM12.726 11.1819C12.726 11.4175 12.6271 11.6435 12.4509 11.8101C12.2747 11.9767 12.0358 12.0703 11.7866 12.0703C11.5375 12.0703 11.2986 11.9767 11.1224 11.8101C10.9462 11.6435 10.8472 11.4175 10.8472 11.1819C10.8472 10.9462 10.9462 10.7203 11.1224 10.5537C11.2986 10.387 11.5375 10.2934 11.7866 10.2934C12.0358 10.2934 12.2747 10.387 12.4509 10.5537C12.6271 10.7203 12.726 10.9462 12.726 11.1819ZM19.3018 11.1819C19.3018 11.4175 19.2028 11.6435 19.0266 11.8101C18.8505 11.9767 18.6115 12.0703 18.3624 12.0703C18.1133 12.0703 17.8743 11.9767 17.6981 11.8101C17.522 11.6435 17.423 11.4175 17.423 11.1819C17.423 10.9462 17.522 10.7203 17.6981 10.5537C17.8743 10.387 18.1133 10.2934 18.3624 10.2934C18.6115 10.2934 18.8505 10.387 19.0266 10.5537C19.2028 10.7203 19.3018 10.9462 19.3018 11.1819Z" stroke="#D9D9D9" stroke-width="1.87879" stroke-linecap="round" stroke-linejoin="round"/>
</g>
</svg>
